<?xml version="1.0" encoding="utf-8"?>
<!-- Generator: Adobe Illustrator 15.0.0, SVG Export Plug-In  -->
<!DOCTYPE svg PUBLIC "-//W3C//DTD SVG 1.1//EN" "http://www.w3.org/Graphics/SVG/1.1/DTD/svg11.dtd" [
	<!ENTITY ns_flows "http://ns.adobe.com/Flows/1.0/">
]>
<svg version="1.1"
	 xmlns="http://www.w3.org/2000/svg" xmlns:xlink="http://www.w3.org/1999/xlink" xmlns:a="http://ns.adobe.com/AdobeSVGViewerExtensions/3.0/"
	 x="0px" y="0px" width="398px" height="302px" viewBox="0 0 398 302" overflow="visible" enable-background="new 0 0 398 302"
	 xml:space="preserve">
<defs>
</defs>
<path fill="#FAA61A" d="M398.2,294.7c0,4.3-3.5,7.8-7.8,7.8H7.8c-4.3,0-7.8-3.5-7.8-7.8V176.2c0-4.3,3.5-7.8,7.8-7.8h382.7
	c4.3,0,7.8,3.5,7.8,7.8V294.7z"/>
<path fill="#52C6D8" d="M398.2,179.3c0,4.3-3.5,7.8-7.8,7.8H7.8c-4.3,0-7.8-3.5-7.8-7.8V39.5c0-4.3,3.5-7.8,7.8-7.8h382.7
	c4.3,0,7.8,3.5,7.8,7.8V179.3z"/>
<path fill="#FFFFFF" d="M381,274c0,4.3-3.5,7.8-7.8,7.8H24.9c-4.3,0-7.8-3.5-7.8-7.8V57.4c0-4.3,3.5-7.8,7.8-7.8h348.3
	c4.3,0,7.8,3.5,7.8,7.8V274z"/>
<path opacity="0.15" fill="#D1D3D4" d="M398.1,41.5v243.4c0,0-63.4-68.9-167.2-144.1C126.8,65.4,38.1,32.4,38.1,32.4H389
	C394,32.4,398.1,36.5,398.1,41.5z"/>
<line fill="none" stroke="#010101" stroke-width="15.5254" stroke-linecap="round" stroke-miterlimit="10" x1="118.8" y1="125.1" x2="118.8" y2="151.3"/>
<path fill="none" stroke="#ED1C2C" stroke-width="10.7483" stroke-linecap="round" stroke-miterlimit="10" d="M101.5,9
	c0,0,5.1-3.6,16.1-3.6C129,5.4,133.7,9,133.7,9"/>
<path fill="none" stroke="#ED1C2C" stroke-width="10.7483" stroke-linecap="round" stroke-miterlimit="10" d="M256.7,9
	c0,0,5.1-3.6,16.1-3.6C284.3,5.4,289,9,289,9"/>
<path fill="none" stroke="#000000" stroke-width="13.7633" stroke-linecap="round" stroke-miterlimit="10" d="M274.1,205.7
	c0,0-29.1,13.1-74.4,13.1c-50.4,0-80.9-13.1-80.9-13.1"/>
<line fill="none" stroke="#010101" stroke-width="15.5254" stroke-linecap="round" stroke-miterlimit="10" x1="274.1" y1="125.1" x2="274.1" y2="151.3"/>
</svg>
