<svg 
	 version="1.1"
	 class="inside-cloud"
	 xmlns="http://www.w3.org/2000/svg"
	 viewBox="0 0 179 75"
	 preserveAspectRatio="xMinYMin meet"
>
<defs>
</defs>
<path fill="#FAA61A" d="M78.8,54.8c0,0.8-0.6,1.4-1.4,1.4H6.2c-0.8,0-1.4-0.6-1.4-1.4v-22c0-0.8,0.6-1.4,1.4-1.4h71.2
	c0.8,0,1.4,0.6,1.4,1.4V54.8z"/>
<path fill="#72BF44" d="M83.7,71.3c0.2,0.8-0.2,1.4-1,1.4H1.1c-0.8,0-1.3-0.6-1-1.4l4.3-13.7c0.2-0.8,1.1-1.4,1.9-1.4h71.2
	c0.8,0,1.6,0.6,1.9,1.4L83.7,71.3z"/>
<path fill="#FFFFFF" d="M50.1,68.8c0.1,0.3-0.1,0.5-0.4,0.5H34.2c-0.3,0-0.5-0.2-0.4-0.5l1.5-4.5c0.1-0.3,0.4-0.5,0.7-0.5h11.7
	c0.3,0,0.6,0.2,0.7,0.5L50.1,68.8z"/>
<path fill="#52C6D8" d="M78.8,33.3c0,0.8-0.6,1.4-1.4,1.4H6.2c-0.8,0-1.4-0.6-1.4-1.4v-26c0-0.8,0.6-1.4,1.4-1.4h71.2
	c0.8,0,1.4,0.6,1.4,1.4V33.3z"/>
<path fill="#FFFFFF" d="M75.6,51c0,0.8-0.6,1.4-1.4,1.4H9.4C8.6,52.4,8,51.8,8,51V10.7c0-0.8,0.6-1.4,1.4-1.4h64.8
	c0.8,0,1.4,0.6,1.4,1.4V51z"/>
<path opacity="0.15" fill="#D1D3D4" enable-background="new    " d="M78.8,7.7V53c0,0-11.8-12.8-31.1-26.8C28.3,12.2,11.8,6,11.8,6
	h65.3C78,6,78.8,6.8,78.8,7.7z"/>
<path fill="#FFFFFF" d="M76.5,61.1c0.1,0.3-0.1,0.5-0.4,0.5H7.7c-0.3,0-0.5-0.2-0.4-0.5l0.5-2c0.1-0.3,0.4-0.5,0.7-0.5h66.9
	c0.3,0,0.6,0.2,0.7,0.5L76.5,61.1z"/>
<path d="M107.4,16.4l3.1-8.7c0.6-1.7,3.2-0.9,2.6,0.9L108.9,20c-0.4,1.2-0.7,1.6-1.5,1.6c-0.8,0-1-0.5-1.4-1.2l-3.7-8.3l-3.5,8.2
	c-0.4,0.9-0.7,1.4-1.5,1.4c-0.7,0-1.1-0.5-1.5-1.4L91.9,8.6c-0.6-1.9,2-2.6,2.6-0.9l3.1,8.7l3.7-8.7c0.5-1.3,1.8-1.4,2.4-0.1
	L107.4,16.4z"/>
<path d="M117.4,21.4c-0.7,0-1.3-0.6-1.3-1.3v-12c0-0.8,0.6-1.3,1.3-1.3h7.6c1.9,0,1.9,2.7,0,2.7h-6.1v3.2h5.3c1.9,0,1.9,2.8,0,2.8
	h-5.3v3.2h6.4c1.9,0,2.1,2.8,0,2.8H117.4z"/>
<path d="M131.4,21.4c-0.8,0-1.3-0.6-1.3-1.3v-12c0-0.8,0.5-1.3,1.3-1.3h5.9c2.8,0,4.3,1.9,4.3,4c0,0.9-0.3,1.9-1.2,2.7
	c1.7,0.7,2.4,1.9,2.4,3.5c0,2.4-1.6,4.4-4.8,4.4H131.4z M137.3,9.4h-4.5v3.1h4.5c0.9,0,1.5-0.6,1.5-1.7
	C138.8,10.2,138.2,9.4,137.3,9.4z M132.8,18.9h5.1c2.4,0,2.4-3.7,0-3.7c-1.6,0-3.5,0-5.1,0V18.9z"/>
<path d="M94.4,49.7c0-0.7,0.6-1.3,1.3-1.3c0.7,0,1.2,0.6,1.2,1.3v10.6h5.7c2.1,0,2.1,2.8,0,2.8h-7c-0.7,0-1.3-0.5-1.3-1.3V49.7z"/>
<path d="M107.1,63c-0.7-0.4-1.1-1.1-0.7-2l6.1-11.8c0.6-1.1,2.1-1.2,2.6,0l6,11.8c0.9,1.6-1.7,3-2.4,1.3l-0.9-1.9h-7.8l-0.9,1.9
	C108.7,63,107.9,63.2,107.1,63z M116.2,57.7l-2.4-5.2l-2.6,5.2H116.2z"/>
<path d="M125.3,63c-0.8,0-1.3-0.6-1.3-1.3v-12c0-0.8,0.5-1.3,1.3-1.3h5.9c2.8,0,4.3,1.9,4.3,4c0,0.9-0.3,1.9-1.2,2.7
	c1.7,0.7,2.4,1.9,2.4,3.5c0,2.4-1.6,4.4-4.8,4.4H125.3z M131.2,51h-4.5v3.1h4.5c0.9,0,1.5-0.6,1.5-1.7C132.7,51.8,132.1,51,131.2,51
	z M126.7,60.5h5.1c2.4,0,2.4-3.7,0-3.7c-1.6,0-3.5,0-5.1,0V60.5z"/>
<path d="M139.9,51.6c0.5-4.1,6.7-4.8,9.6-2.6c1.4,1.2-0.1,3-1.4,2.1c-1.6-1-5.1-1.5-5.5,0.7c-0.6,3.5,8.6,1.5,8.5,7.1
	c-0.1,5.4-7.9,5.5-10.8,3.1c-0.7-0.6-0.7-1.5-0.3-2.1c0.5-0.5,1.2-0.7,1.9-0.1c1.7,1.2,6.2,2.1,6.5-0.9
	C148,55.7,139.3,57.6,139.9,51.6z"/>
<path fill="#2584C5" d="M95.8,42.2c-0.8,0-1.4-0.6-1.4-1.4V29c0-0.8,0.6-1.4,1.4-1.4s1.4,0.6,1.4,1.4v11.9
	C97.1,41.6,96.5,42.2,95.8,42.2z"/>
<path fill="#ED1C2C" d="M101.1,30.3h-5.4c-0.8,0-1.4-0.6-1.4-1.4c0-0.8,0.6-1.4,1.4-1.4h5.4c0.8,0,1.4,0.6,1.4,1.4
	C102.5,29.7,101.9,30.3,101.1,30.3z"/>
<path fill="#72BF44" d="M101.1,42.2h-5.4c-0.8,0-1.4-0.6-1.4-1.4s0.6-1.4,1.4-1.4h5.4c0.8,0,1.4,0.6,1.4,1.4S101.9,42.2,101.1,42.2z
	"/>
<path fill="#52C6D8" d="M106.6,36.3c-0.8,0-1.4-0.6-1.4-1.4c0-2.6-1.7-4.6-4.2-4.6c-0.8,0-1.4-0.6-1.4-1.4c0-0.8,0.6-1.4,1.4-1.4
	c3.9,0,6.9,3.1,6.9,7.3C108,35.7,107.3,36.3,106.6,36.3z"/>
<path fill="#FAA61A" d="M101.1,42.2c-0.8,0-1.4-0.6-1.4-1.4s0.6-1.4,1.4-1.4c2.4,0,4.2-1.9,4.2-4.6c0-0.8,0.6-1.4,1.4-1.4
	s1.4,0.6,1.4,1.4C108,39.1,105,42.2,101.1,42.2z"/>
<path fill="#2584C5" d="M112.6,42.3c-0.8,0-1.4-0.6-1.4-1.4V29c0-0.8,0.6-1.4,1.4-1.4c0.8,0,1.4,0.6,1.4,1.4v11.9
	C114,41.7,113.4,42.3,112.6,42.3z"/>
<path fill="#ED1C2C" d="M120.6,30.4h-8c-0.8,0-1.4-0.6-1.4-1.4s0.6-1.4,1.4-1.4h8c0.8,0,1.4,0.6,1.4,1.4S121.3,30.4,120.6,30.4z"/>
<path fill="#72BF44" d="M120.6,42.3h-8c-0.8,0-1.4-0.6-1.4-1.4c0-0.8,0.6-1.4,1.4-1.4h8c0.8,0,1.4,0.6,1.4,1.4
	C121.9,41.7,121.3,42.3,120.6,42.3z"/>
<path fill="#FAA61A" d="M119.4,36.3h-6.8c-0.8,0-1.4-0.6-1.4-1.4c0-0.8,0.6-1.4,1.4-1.4h6.8c0.8,0,1.4,0.6,1.4,1.4
	C120.8,35.7,120.2,36.3,119.4,36.3z"/>
<path fill="#72BF44" d="M134.8,39.5c-0.8,0-1.4-0.6-1.4-1.4c0-0.4,0-1.3-3.5-2.1c-0.8-0.2-1.2-0.9-1.1-1.7c0.2-0.8,0.9-1.2,1.7-1.1
	c1.7,0.4,2.9,0.8,3.8,1.4c1.6,1.1,1.9,2.4,1.9,3.4C136.2,38.9,135.5,39.5,134.8,39.5z"/>
<path fill="#FAA61A" d="M130.5,42.7L130.5,42.7c-2.2-0.1-3.8-0.9-4.9-1.5c-0.2-0.1-0.3-0.2-0.5-0.3c-0.7-0.4-1-1.2-0.6-1.9
	s1.2-1,1.9-0.6c0.2,0.1,0.4,0.2,0.5,0.3c1,0.5,2,1.1,3.5,1.2c0.8,0,1.4,0.7,1.4,1.4C131.9,42.1,131.3,42.7,130.5,42.7z"/>
<path fill="#2584C5" d="M130.7,42.7c-0.1,0-0.2,0-0.2,0c-0.8,0-1.4-0.7-1.4-1.4c0-0.8,0.7-1.4,1.4-1.4c1.1,0,1.9-0.2,2.3-0.7
	c0.4-0.4,0.5-0.8,0.5-1.1c0-0.8,0.6-1.4,1.4-1.4s1.4,0.6,1.4,1.4c0,1.2-0.5,2.3-1.3,3.1C134.2,41.9,132.9,42.7,130.7,42.7z"/>
<path fill="#52C6D8" d="M130.1,36c-0.1,0-0.2,0-0.3,0c-1.3-0.3-2.3-0.6-3-1.1c-1.6-1-1.9-2.4-1.9-3.4c0-1.4,0.5-2.5,1.4-3.3
	c1-0.9,2.5-1.3,4.5-1.2c0.8,0.1,1.4,0.7,1.3,1.5c-0.1,0.8-0.7,1.4-1.5,1.3c-1.2-0.1-2,0.1-2.4,0.5c-0.1,0.1-0.4,0.4-0.5,1.3
	c0,0.3,0,1.1,2.7,1.7c0.8,0.2,1.2,0.9,1.1,1.7C131.4,35.6,130.8,36,130.1,36z"/>
<path fill="#ED1C2C" d="M134.1,30.9c-0.2,0-0.4,0-0.6-0.2c-1.1-0.6-2.1-0.9-2.8-1c-0.8-0.1-1.4-0.7-1.3-1.5c0.1-0.8,0.7-1.4,1.5-1.3
	c1.1,0.1,2.4,0.5,3.9,1.3c0.7,0.4,1,1.2,0.6,1.9C135,30.6,134.6,30.9,134.1,30.9z"/>
<path fill="#ED1C2C" d="M141,42.3c-0.8,0-1.4-0.6-1.4-1.4v-12c0-0.8,0.6-1.4,1.4-1.4s1.4,0.6,1.4,1.4v12
	C142.3,41.6,141.7,42.3,141,42.3z"/>
<path fill="#2584C5" d="M147.4,36.2c-0.8,0-1.4-0.6-1.4-1.4c0-4.2,3.4-7.6,7.6-7.6c0.8,0,1.4,0.6,1.4,1.4c0,0.8-0.6,1.4-1.4,1.4
	c-2.7,0-4.8,2.2-4.8,4.8C148.8,35.6,148.1,36.2,147.4,36.2z"/>
<path fill="#FAA61A" d="M153.6,42.4c-4.2,0-7.6-3.4-7.6-7.6c0-0.8,0.6-1.4,1.4-1.4c0.8,0,1.4,0.6,1.4,1.4c0,2.7,2.2,4.9,4.8,4.9
	c0.8,0,1.4,0.6,1.4,1.4C155,41.9,154.4,42.4,153.6,42.4z"/>
<path fill="#ED1C2C" d="M153.6,42.4c-0.8,0-1.4-0.6-1.4-1.4s0.6-1.4,1.4-1.4c1.2,0,2.4-0.5,3.3-1.3c0.6-0.5,1.4-0.5,1.9,0.1
	c0.5,0.6,0.5,1.4-0.1,1.9C157.4,41.7,155.5,42.4,153.6,42.4z"/>
<path fill="#72BF44" d="M157.9,31.7c-0.3,0-0.7-0.1-1-0.4c-0.9-0.9-2.1-1.4-3.4-1.4c-0.8,0-1.4-0.6-1.4-1.4s0.6-1.4,1.4-1.4
	c2,0,3.8,0.8,5.3,2.1c0.5,0.5,0.6,1.4,0,1.9C158.6,31.6,158.3,31.7,157.9,31.7z"/>
<path fill="#52C6D8" d="M157.9,40.7c-0.8,0-1.4-0.6-1.4-1.4v-4.4c0-0.8,0.6-1.4,1.4-1.4c0.8,0,1.4,0.6,1.4,1.4v4.4
	C159.2,40.1,158.6,40.7,157.9,40.7z"/>
<path fill="#F37021" d="M157.9,36.3h-4.5c-0.8,0-1.4-0.6-1.4-1.4c0-0.8,0.6-1.4,1.4-1.4h4.5c0.8,0,1.4,0.6,1.4,1.4
	C159.2,35.7,158.6,36.3,157.9,36.3z"/>
<path fill="#ED1C2C" d="M164.3,42.2c-0.8,0-1.4-0.6-1.4-1.4V29c0-0.8,0.6-1.4,1.4-1.4s1.4,0.6,1.4,1.4v11.9
	C165.7,41.6,165.1,42.2,164.3,42.2z"/>
<path fill="#FAA61A" d="M174.4,42.2c-0.4,0-0.8-0.2-1-0.5l-10.1-11.9c-0.5-0.6-0.4-1.4,0.2-1.9s1.4-0.4,1.9,0.2l10,11.9
	c0.5,0.6,0.4,1.4-0.2,1.9C175,42.1,174.7,42.2,174.4,42.2z"/>
<path fill="#72BF44" d="M174.4,42.2c-0.8,0-1.4-0.6-1.4-1.4V29c0-0.8,0.6-1.4,1.4-1.4c0.8,0,1.4,0.6,1.4,1.4v11.9
	C175.8,41.6,175.1,42.2,174.4,42.2z"/>
<path fill="#8E8E8E" d="M95.1,74.1c-0.2,0-0.4-0.2-0.4-0.4V70c0-0.2,0.2-0.4,0.4-0.4H97c0.9,0,1.3,0.6,1.3,1.2
	c0,0.3-0.1,0.6-0.4,0.8c0.5,0.2,0.7,0.6,0.7,1.1c0,0.8-0.5,1.4-1.5,1.4H95.1z M97,70.4h-1.4v1H97c0.3,0,0.5-0.2,0.5-0.5
	C97.4,70.6,97.2,70.4,97,70.4z M95.6,73.3h1.6c0.8,0,0.8-1.2,0-1.2c-0.5,0-1.1,0-1.6,0V73.3z"/>
<path fill="#8E8E8E" d="M99,70.2c-0.3-0.4,0.4-0.9,0.7-0.4l1.1,1.7l1.2-1.7c0.3-0.5,1.1,0,0.7,0.4l-1.5,2.1v1.4c0,0.6-0.9,0.6-0.9,0
	v-1.3L99,70.2z"/>
<path fill="#8E8E8E" d="M106.2,71.3v2.4c0,0.3-0.2,0.5-0.5,0.5c-0.2,0-0.4-0.2-0.4-0.5V70c0-0.3,0.3-0.5,0.4-0.5
	c0.2,0,0.3,0.1,0.4,0.2l1.4,1.9l1.5-2c0.2-0.3,0.7-0.2,0.7,0.3v3.7c0,0.3-0.2,0.5-0.4,0.5c-0.2,0-0.4-0.2-0.4-0.5v-2.4l-1.1,1.4
	c-0.2,0.3-0.5,0.3-0.7,0L106.2,71.3z"/>
<path fill="#8E8E8E" d="M110.8,70c0-0.5,0.9-0.6,0.9,0v3.7c0,0.5-0.9,0.6-0.9,0V70z"/>
<path fill="#8E8E8E" d="M113.5,71.3v2.4c0,0.3-0.2,0.5-0.5,0.5c-0.2,0-0.4-0.2-0.4-0.5V70c0-0.3,0.3-0.5,0.4-0.5
	c0.2,0,0.3,0.1,0.4,0.2l1.4,1.9l1.5-2c0.2-0.3,0.7-0.2,0.7,0.3v3.7c0,0.3-0.2,0.5-0.4,0.5c-0.2,0-0.4-0.2-0.4-0.5v-2.4l-1.1,1.4
	c-0.2,0.3-0.5,0.3-0.7,0L113.5,71.3z"/>
<path fill="#8E8E8E" d="M120.3,74.2c-1.2,0.1-2.5-0.8-2.5-2.4c0-1.6,1.3-2.4,2.5-2.4c1.1,0.1,2.3,0.8,2.3,2.4S121.4,74.2,120.3,74.2
	z M120.2,70.3c-0.7,0-1.5,0.5-1.5,1.5c0,1,0.8,1.5,1.5,1.5c0.8,0,1.6-0.5,1.6-1.5C121.8,70.8,121,70.3,120.2,70.3z"/>
<path fill="#8E8E8E" d="M123.1,70.2c-0.3-0.4,0.4-0.9,0.7-0.4l1.1,1.7l1.2-1.7c0.3-0.5,1.1,0,0.7,0.4l-1.5,2.1v1.4
	c0,0.6-0.9,0.6-0.9,0v-1.3L123.1,70.2z"/>
<path fill="#8E8E8E" d="M128.4,71.3v2.4c0,0.3-0.2,0.5-0.5,0.5c-0.2,0-0.4-0.2-0.4-0.5V70c0-0.3,0.3-0.5,0.4-0.5
	c0.2,0,0.3,0.1,0.4,0.2l1.4,1.9l1.5-2c0.2-0.3,0.7-0.2,0.7,0.3v3.7c0,0.3-0.2,0.5-0.4,0.5c-0.2,0-0.4-0.2-0.4-0.5v-2.4l-1.1,1.4
	c-0.2,0.3-0.5,0.3-0.7,0L128.4,71.3z"/>
<path fill="#8E8E8E" d="M133,70c0-0.5,0.9-0.6,0.9,0v3.7c0,0.5-0.9,0.6-0.9,0V70z"/>
<path fill="#8E8E8E" d="M135.7,71.3v2.4c0,0.3-0.2,0.5-0.5,0.5c-0.2,0-0.4-0.2-0.4-0.5V70c0-0.3,0.3-0.5,0.4-0.5
	c0.2,0,0.3,0.1,0.4,0.2l1.4,1.9l1.5-2c0.2-0.3,0.7-0.2,0.7,0.3v3.7c0,0.3-0.2,0.5-0.4,0.5c-0.2,0-0.4-0.2-0.4-0.5v-2.4l-1.1,1.4
	c-0.2,0.3-0.5,0.3-0.7,0L135.7,71.3z"/>
<path fill="#8E8E8E" d="M140.1,74.1c-0.2-0.1-0.3-0.4-0.2-0.6l1.9-3.7c0.2-0.3,0.6-0.4,0.8,0l1.8,3.7c0.3,0.5-0.5,0.9-0.8,0.4
	l-0.3-0.6H141l-0.3,0.6C140.6,74.1,140.3,74.2,140.1,74.1z M142.9,72.5l-0.7-1.6l-0.8,1.6H142.9z"/>
<path fill="#8E8E8E" d="M144.8,73.6c0-0.6,0.9-0.6,0.9,0v0.1c0,0.6-0.9,0.6-0.9,0V73.6z"/>
<path fill="#8E8E8E" d="M146.4,71.8c0-1.3,0.8-2.3,2.3-2.3c0.6,0,1,0.2,1.5,0.6c0.2,0.2,0.2,0.5,0,0.6c-0.2,0.2-0.4,0.1-0.6,0
	c-0.3-0.3-0.5-0.4-0.9-0.4c-1,0-1.5,0.7-1.5,1.5c0,0.8,0.5,1.6,1.5,1.6c0.4,0,0.7-0.2,1-0.4c0.2-0.2,0.5-0.1,0.6,0.1
	c0.1,0.1,0.2,0.4-0.1,0.6c-0.5,0.4-1,0.5-1.5,0.5C147.1,74.2,146.4,73.1,146.4,71.8z"/>
<path fill="#8E8E8E" d="M153.4,74.2c-1.2,0.1-2.5-0.8-2.5-2.4c0-1.6,1.3-2.4,2.5-2.4c1.1,0.1,2.3,0.8,2.3,2.4S154.6,74.2,153.4,74.2
	z M153.4,70.3c-0.7,0-1.5,0.5-1.5,1.5c0,1,0.8,1.5,1.5,1.5c0.8,0,1.6-0.5,1.6-1.5C154.9,70.8,154.1,70.3,153.4,70.3z"/>
<path fill="#8E8E8E" d="M157.4,71.3v2.4c0,0.3-0.2,0.5-0.5,0.5c-0.2,0-0.4-0.2-0.4-0.5V70c0-0.3,0.3-0.5,0.4-0.5
	c0.2,0,0.3,0.1,0.4,0.2l1.4,1.9l1.5-2c0.2-0.3,0.7-0.2,0.7,0.3v3.7c0,0.3-0.2,0.5-0.4,0.5c-0.2,0-0.4-0.2-0.4-0.5v-2.4l-1.1,1.4
	c-0.2,0.3-0.5,0.3-0.7,0L157.4,71.3z"/>
<line fill="none" stroke="#010101" stroke-width="2.8874" stroke-linecap="round" stroke-miterlimit="10" x1="26.8" y1="23.3" x2="26.8" y2="28.1"/>
<path fill="none" stroke="#ED1C2C" stroke-width="1.999" stroke-linecap="round" stroke-miterlimit="10" d="M23.6,1.7
	c0,0,1-0.7,3-0.7c2.1,0,3,0.7,3,0.7"/>
<path fill="none" stroke="#ED1C2C" stroke-width="1.999" stroke-linecap="round" stroke-miterlimit="10" d="M52.5,1.7
	c0,0,1-0.7,3-0.7c2.1,0,3,0.7,3,0.7"/>
<path fill="none" stroke="#000000" stroke-width="2.5597" stroke-linecap="round" stroke-miterlimit="10" d="M55.7,38.3
	c0,0-5.4,2.4-13.8,2.4c-9.4,0-15-2.4-15-2.4"/>
<line fill="none" stroke="#010101" stroke-width="2.8874" stroke-linecap="round" stroke-miterlimit="10" x1="55.7" y1="23.3" x2="55.7" y2="28.1"/>
<path fill="#52C6D8" d="M0,71.8v1.9c0,0.8,0.6,1.4,1.4,1.4h80.9c0.8,0,1.4-0.7,1.4-1.4v-1.9H0z"/>
<path fill="#2584C5" d="M35.8,71.8v0.5c0,0.4,0.4,0.8,0.8,0.8h10.3c0.4,0,0.8-0.4,0.8-0.8v-0.5H35.8z"/>
</svg>
